<?xml version="1.0"?>
<svg width="275" height="275" xmlns="http://www.w3.org/2000/svg" xmlns:svg="http://www.w3.org/2000/svg" version="1.1">
 <g class="layer">
  <title>Layer 1</title>
  <g fill="none" id="svg_1" stroke-width="2">
   <path d="m85.61,190.14l0.03,29.17" id="svg_2" stroke="#3d5050"/>
   <path d="m85.64,219.31q-5.89,4.01 -13.37,7.04q-0.53,0.22 -0.53,-0.35l0.01,-24.97a0.78,0.77 -72.5 0 0 -0.32,-0.63c-4.19,-3.09 -8.37,-7.28 -12.98,-9.89q-0.52,-0.3 -0.52,0.3l0.01,57.13q0,0.64 0.59,0.39q16.39,-7.13 24.29,-11.4q4.43,-2.4 8.92,-4.49q7.9,-3.68 9.25,-4.39c9.05,-4.74 18.55,-9.25 27.71,-14.35q3.71,-2.06 8.5,-4.08q5.44,-2.28 14.31,-7.31q11.96,-6.79 28.57,-9.76c12.14,-2.18 23.72,-7.92 31.94,-17.23q4.61,-5.21 6.54,-8.14q6.91,-10.43 8.52,-23.69q0.72,-5.91 0.44,-19.99q-0.18,-8.78 0.04,-17.54q0.27,-10.35 -1.4,-17.38c-1.94,-8.19 -5.86,-17 -11.38,-23.69q-2.29,-2.77 -4.86,-5.81c-10.33,-12.23 -26.73,-19.6 -43.07,-23.35q-6.29,-1.44 -12.89,-1.47q-16.14,-0.08 -32.64,0.08q-5.62,0.05 -11.45,1.28q-14.61,3.08 -27.81,10.29q-9.46,5.18 -15.13,11.46q-7.42,8.21 -10.54,13.33q-5.02,8.22 -7.74,19.54q-0.68,2.85 -0.67,5.36q0.03,18.62 -0.07,37.56q-0.05,10 1.2,15.53q2.03,8.96 6.03,15.94q2,3.47 5.8,7.98q4.97,5.91 7.27,7.72q8.38,6.57 17.4,9.81" id="svg_3" stroke="#939e9b"/>
   <path d="m85.64,219.31l46.43,-23.25" id="svg_4" stroke="#a6b0ad"/>
   <path d="m132.07,196.06q2.73,-1.2 6.1,-2.89q3.07,-1.53 6.12,-2.81q3.78,-1.6 7.85,-3.58q5.68,-2.75 12.68,-4.83c8.01,-2.38 16.53,-2.94 24.08,-6.56q9.25,-4.43 15.77,-11.6" id="svg_5" stroke="#b8c0be"/>
   <path d="m204.67,163.79c4.22,-5.93 6.21,-10.78 7.86,-17.39q0.99,-3.96 1.01,-8.91q0.07,-17.45 0.17,-36.25q0.1,-20.36 -14.43,-34.29q-1.66,-1.59 -6.78,-5.57c-11.69,-9.08 -27.1,-13.36 -41.87,-13.63q-14.13,-0.26 -26.29,0.18q-16.69,0.61 -33.2,8.6q-3.82,1.85 -8.07,5.04q-4.53,3.41 -7.76,6.43q-8.16,7.61 -11.95,20.26q-1.43,4.77 -1.5,15.09q-0.15,19 -0.07,34.89q0.08,14.18 9.15,25.44" id="svg_6" stroke="#a6b0ad"/>
   <path d="m70.94,163.68q1.56,2.81 4.98,5.4c3.49,2.63 7.99,5.86 12.15,7.19q1.5,0.48 1.91,1.28q3.99,7.71 7.61,14.06" id="svg_7" stroke="#b8c0be"/>
   <path d="m97.59,191.61l0.81,1.42a0.55,0.55 0 0 1 -0.63,0.81l-12.16,-3.7" id="svg_8" stroke="#a6b0ad"/>
   <path d="m204.67,163.79q0.08,-3.21 2.58,-8.29q2.81,-5.71 2.81,-15.75q0,-17.5 -0.12,-35q-0.09,-12.13 -7.56,-22.35" id="svg_9" stroke="#627373"/>
   <path d="m68.08,92.27q-2.88,4.97 -2.74,12.48q0.24,13.06 0.08,35q-0.09,11.9 5.52,23.93" id="svg_10" stroke="#627373"/>
   <path d="m132.07,196.06q-15.89,-0.18 -24.7,-2.46q-6.23,-1.61 -9.78,-1.99" id="svg_11" stroke="#627373"/>
   <path d="m21.51,131.56c-0.77,6.56 -0.01,15.23 4.51,20.16q4.49,4.9 10.44,7.84q1.13,0.56 0.83,-0.66q-1.64,-6.67 -1.87,-13.68" id="svg_12" stroke="#6b797a"/>
   <path d="m35.42,145.22l-0.25,-34.48q-0.01,-0.54 -0.47,-0.27c-8.03,4.68 -13.75,11.34 -13.19,21.09" id="svg_13" stroke="#939e9b"/>
   <path d="m35.42,145.22q-10.65,-3.6 -13.91,-13.66" id="svg_14" stroke="#d4d9d7"/>
   <path d="m239.61,145.33l-1.84,14.02a0.27,0.27 0 0 0 0.37,0.29q7.14,-2.82 12.15,-9.21q2.03,-2.6 2.71,-6.86q0.77,-4.92 0.19,-9.55" id="svg_15" stroke="#6b797a"/>
   <path d="m253.19,134.02q1.06,-9.72 -4.27,-16.17q-3.77,-4.58 -8.74,-7.47a0.36,0.36 0 0 0 -0.54,0.31l-0.03,34.64" id="svg_16" stroke="#939e9b"/>
   <path d="m253.19,134.02q-4.32,7.79 -13.58,11.31" id="svg_17" stroke="#d4d9d7"/>
   <path d="m171.74,103.17c5.86,-1.06 10.8,2.23 15.57,5.22c1.68,1.06 3.51,0.54 4.96,-0.65c2.54,-2.08 2.14,-5.44 0.02,-7.61q-13.88,-14.24 -31.86,-4.44q-4.35,2.36 -2.7,6.68c2.33,6.09 10.03,1.52 14.01,0.8" id="svg_18" stroke="#b8c0be"/>
   <path d="m107.49,104.23c3.07,1.56 7.76,3.54 10.43,0.52c2.43,-2.74 1.17,-6.41 -1.81,-8.26q-17.26,-10.64 -31.84,2.34c-2.38,2.11 -4.71,5.11 -1.97,8.11q3.05,3.35 6.67,1.02c5.44,-3.51 11.99,-7.04 18.52,-3.73" id="svg_19" stroke="#b8c0be"/>
   <path d="m108.86,124.64a8.83,8.83 0 0 0 -8.83,-8.83a8.83,8.83 0 0 0 -8.83,8.83a8.83,8.83 0 0 0 8.83,8.83a8.83,8.83 0 0 0 8.83,-8.83" id="svg_20" stroke="#b8c0be"/>
   <path d="m181.48,131.32a8.89,8.77 48.9 0 0 0.77,-12.47a8.89,8.77 48.9 0 0 -12.45,-0.93a8.89,8.77 48.9 0 0 -0.77,12.47a8.89,8.77 48.9 0 0 12.45,0.93" id="svg_21" stroke="#b8c0be"/>
   <path d="m132.69,154.59q-1.93,-0.77 -3.71,-1.63c-2.63,-1.29 -5.41,0.57 -6.36,3.07c-2.22,5.88 6.64,9.83 10.9,10.48q9.46,1.45 16.21,-2.93q5,-3.23 2.92,-8c-1.34,-3.08 -4.59,-3.57 -7.43,-2.13c-3.98,2.01 -8.3,2.83 -12.53,1.14" id="svg_22" stroke="#b8c0be"/>
  </g>
  <path d="m252.97,197.98q-1.03,2.02 -2.11,3.93q-7.36,12.95 -13.34,19.34c-3.19,3.41 -6.33,7.29 -9.77,10.28q-11.25,9.78 -19.63,15.1q-6.32,4.02 -19.26,9.86q-16.31,7.35 -32.67,9.47q-9.06,1.17 -20.71,1.21q-29.5,0.12 -57.18,-14.19q-2.5,-1.29 -4.97,-0.37q-18.03,6.72 -36.19,14.54q-2.03,0.86 -4.71,1.43c-7.25,1.54 -11.35,-2.66 -11.38,-9.78q-0.12,-29.29 0.2,-59.58c0.04,-4.04 -2.74,-7.85 -4.28,-11.43q-22.77,-53.03 0.86,-105.72q2.27,-5.06 5.12,-10.14q2.85,-5.07 5.99,-9.62q28.93,-41.84 79.14,-54.59q29.15,-7.4 58.06,-0.23q28.62,7.1 50.06,23.57q20.48,15.73 34.98,39.74q2.09,3.45 7.74,16.74q16.25,38.24 6.28,78.02q-4.18,16.65 -12.23,32.42zm-167.36,-7.84l0.03,29.17q-5.89,4.01 -13.37,7.04q-0.53,0.22 -0.53,-0.35l0.01,-24.97a0.78,0.77 -72.5 0 0 -0.32,-0.63c-4.19,-3.09 -8.37,-7.28 -12.98,-9.89q-0.52,-0.3 -0.52,0.3l0.01,57.13q0,0.64 0.59,0.39q16.39,-7.13 24.29,-11.4q4.43,-2.4 8.92,-4.49q7.9,-3.68 9.25,-4.39c9.05,-4.74 18.55,-9.25 27.71,-14.35q3.71,-2.06 8.5,-4.08q5.44,-2.28 14.31,-7.31q11.96,-6.79 28.57,-9.76c12.14,-2.18 23.72,-7.92 31.94,-17.23q4.61,-5.21 6.54,-8.14q6.91,-10.43 8.52,-23.69q0.72,-5.91 0.44,-19.99q-0.18,-8.78 0.04,-17.54q0.27,-10.35 -1.4,-17.38c-1.94,-8.19 -5.86,-17 -11.38,-23.69q-2.29,-2.77 -4.86,-5.81c-10.33,-12.23 -26.73,-19.6 -43.07,-23.35q-6.29,-1.44 -12.89,-1.47q-16.14,-0.08 -32.64,0.08q-5.62,0.05 -11.45,1.28q-14.61,3.08 -27.81,10.29q-9.46,5.18 -15.13,11.46q-7.42,8.21 -10.54,13.33q-5.02,8.22 -7.74,19.54q-0.68,2.85 -0.67,5.36q0.03,18.62 -0.07,37.56q-0.05,10 1.2,15.53q2.03,8.96 6.03,15.94q2,3.47 5.8,7.98q4.97,5.91 7.27,7.72q8.38,6.57 17.4,9.81zm-64.1,-58.58c-0.77,6.56 -0.01,15.23 4.51,20.16q4.49,4.9 10.44,7.84q1.13,0.56 0.83,-0.66q-1.64,-6.67 -1.87,-13.68l-0.25,-34.48q-0.01,-0.54 -0.47,-0.27c-8.03,4.68 -13.75,11.34 -13.19,21.09zm218.1,13.77l-1.84,14.02a0.27,0.27 0 0 0 0.37,0.29q7.14,-2.82 12.15,-9.21q2.03,-2.6 2.71,-6.86q0.77,-4.92 0.19,-9.55q1.06,-9.72 -4.27,-16.17q-3.77,-4.58 -8.74,-7.47a0.36,0.36 0 0 0 -0.54,0.31l-0.03,34.64z" fill="#2a3e3d" id="svg_23"/>
  <path d="m85.64,219.31l46.43,-23.25q2.73,-1.2 6.1,-2.89q3.07,-1.53 6.12,-2.81q3.78,-1.6 7.85,-3.58q5.68,-2.75 12.68,-4.83c8.01,-2.38 16.53,-2.94 24.08,-6.56q9.25,-4.43 15.77,-11.6c4.22,-5.93 6.21,-10.78 7.86,-17.39q0.99,-3.96 1.01,-8.91q0.07,-17.45 0.17,-36.25q0.1,-20.36 -14.43,-34.29q-1.66,-1.59 -6.78,-5.57c-11.69,-9.08 -27.1,-13.36 -41.87,-13.63q-14.13,-0.26 -26.29,0.18q-16.69,0.61 -33.2,8.6q-3.82,1.85 -8.07,5.04q-4.53,3.41 -7.76,6.43q-8.16,7.61 -11.95,20.26q-1.43,4.77 -1.5,15.09q-0.15,19 -0.07,34.89q0.08,14.18 9.15,25.44q1.56,2.81 4.98,5.4c3.49,2.63 7.99,5.86 12.15,7.19q1.5,0.48 1.91,1.28q3.99,7.71 7.61,14.06l0.81,1.42a0.55,0.55 0 0 1 -0.63,0.81l-12.16,-3.7q-9.02,-3.24 -17.4,-9.81q-2.3,-1.81 -7.27,-7.72q-3.8,-4.51 -5.8,-7.98q-4,-6.98 -6.03,-15.94q-1.25,-5.53 -1.2,-15.53q0.1,-18.94 0.07,-37.56q-0.01,-2.51 0.67,-5.36q2.72,-11.32 7.74,-19.54q3.12,-5.12 10.54,-13.33q5.67,-6.28 15.13,-11.46q13.2,-7.21 27.81,-10.29q5.83,-1.23 11.45,-1.28q16.5,-0.16 32.64,-0.08q6.6,0.03 12.89,1.47c16.34,3.75 32.74,11.12 43.07,23.35q2.57,3.04 4.86,5.81c5.52,6.69 9.44,15.5 11.38,23.69q1.67,7.03 1.4,17.38q-0.22,8.76 -0.04,17.54q0.28,14.08 -0.44,19.99q-1.61,13.26 -8.52,23.69q-1.93,2.93 -6.54,8.14c-8.22,9.31 -19.8,15.05 -31.94,17.23q-16.61,2.97 -28.57,9.76q-8.87,5.03 -14.31,7.31q-4.79,2.02 -8.5,4.08c-9.16,5.1 -18.66,9.61 -27.71,14.35q-1.35,0.71 -9.25,4.39q-4.49,2.09 -8.92,4.49q-7.9,4.27 -24.29,11.4q-0.59,0.25 -0.59,-0.39l-0.01,-57.13q0,-0.6 0.52,-0.3c4.61,2.61 8.79,6.8 12.98,9.89a0.78,0.77 -72.5 0 1 0.32,0.63l-0.01,24.97q0,0.57 0.53,0.35q7.48,-3.03 13.37,-7.04z" fill="#fcfdf8" id="svg_24"/>
  <path d="m204.67,163.79q0.08,-3.21 2.58,-8.29q2.81,-5.71 2.81,-15.75q0,-17.5 -0.12,-35q-0.09,-12.13 -7.56,-22.35q-1.55,-3.02 -2.9,-4.65c-3.56,-4.29 -8.16,-9.13 -13.2,-11.9q-12.36,-6.77 -25.3,-8.1q-17.16,-1.75 -37.56,-0.5q-11.81,0.73 -21.74,3.76c-3.74,1.14 -7.05,2.81 -10.65,4.19c-1.36,0.52 -2.9,1.37 -4.04,2.25q-10.37,8.02 -16.84,19.36q-1.41,2.47 -2.07,5.46q-2.88,4.97 -2.74,12.48q0.24,13.06 0.08,35q-0.09,11.9 5.52,23.93q-9.07,-11.26 -9.15,-25.44q-0.08,-15.89 0.07,-34.89q0.07,-10.32 1.5,-15.09q3.79,-12.65 11.95,-20.26q3.23,-3.02 7.76,-6.43q4.25,-3.19 8.07,-5.04q16.51,-7.99 33.2,-8.6q12.16,-0.44 26.29,-0.18c14.77,0.27 30.18,4.55 41.87,13.63q5.12,3.98 6.78,5.57q14.53,13.93 14.43,34.29q-0.1,18.8 -0.17,36.25q-0.02,4.95 -1.01,8.91c-1.65,6.61 -3.64,11.46 -7.86,17.39z" fill="#506262" id="svg_25"/>
  <path d="m202.38,82.4q7.47,10.22 7.56,22.35q0.12,17.5 0.12,35q0,10.04 -2.81,15.75q-2.5,5.08 -2.58,8.29q-6.52,7.17 -15.77,11.6c-7.55,3.62 -16.07,4.18 -24.08,6.56q-7,2.08 -12.68,4.83q-4.07,1.98 -7.85,3.58q-3.05,1.28 -6.12,2.81q-3.37,1.69 -6.1,2.89q-15.89,-0.18 -24.7,-2.46q-6.23,-1.61 -9.78,-1.99q-3.62,-6.35 -7.61,-14.06q-0.41,-0.8 -1.91,-1.28c-4.16,-1.33 -8.66,-4.56 -12.15,-7.19q-3.42,-2.59 -4.98,-5.4q-5.61,-12.03 -5.52,-23.93q0.16,-21.94 -0.08,-35q-0.14,-7.51 2.74,-12.48l7.43,-0.89q0.56,-0.07 0.86,-0.54q0.96,-1.5 1.8,-3.03c1.64,-2.98 4.57,-5.6 6.99,-7.99q2.49,-2.47 5.52,-4.13q14.04,-7.68 28.97,-9.15q20.33,-2.01 41.81,0.17q9.07,0.92 20,4.43q11.18,3.6 19.78,11.43q0.47,0.43 1.14,-0.17zm-30.64,20.77c5.86,-1.06 10.8,2.23 15.57,5.22c1.68,1.06 3.51,0.54 4.96,-0.65c2.54,-2.08 2.14,-5.44 0.02,-7.61q-13.88,-14.24 -31.86,-4.44q-4.35,2.36 -2.7,6.68c2.33,6.09 10.03,1.52 14.01,0.8zm-64.25,1.06c3.07,1.56 7.76,3.54 10.43,0.52c2.43,-2.74 1.17,-6.41 -1.81,-8.26q-17.26,-10.64 -31.84,2.34c-2.38,2.11 -4.71,5.11 -1.97,8.11q3.05,3.35 6.67,1.02c5.44,-3.51 11.99,-7.04 18.52,-3.73zm1.37,20.41a8.83,8.83 0 0 0 -8.83,-8.83a8.83,8.83 0 0 0 -8.83,8.83a8.83,8.83 0 0 0 8.83,8.83a8.83,8.83 0 0 0 8.83,-8.83zm72.62,6.68a8.89,8.77 48.9 0 0 0.77,-12.47a8.89,8.77 48.9 0 0 -12.45,-0.93a8.89,8.77 48.9 0 0 -0.77,12.47a8.89,8.77 48.9 0 0 12.45,0.93zm-48.79,23.27q-1.93,-0.77 -3.71,-1.63c-2.63,-1.29 -5.41,0.57 -6.36,3.07c-2.22,5.88 6.64,9.83 10.9,10.48q9.46,1.45 16.21,-2.93q5,-3.23 2.92,-8c-1.34,-3.08 -4.59,-3.57 -7.43,-2.13c-3.98,2.01 -8.3,2.83 -12.53,1.14z" fill="#738383" id="svg_26"/>
  <path d="m187.31,108.39c-4.77,-2.99 -9.71,-6.28 -15.57,-5.22c-3.98,0.72 -11.68,5.29 -14.01,-0.8q-1.65,-4.32 2.7,-6.68q17.98,-9.8 31.86,4.44c2.12,2.17 2.52,5.53 -0.02,7.61c-1.45,1.19 -3.28,1.71 -4.96,0.65z" fill="#fcfdf8" id="svg_27"/>
  <path d="m107.49,104.23c-6.53,-3.31 -13.08,0.22 -18.52,3.73q-3.62,2.33 -6.67,-1.02c-2.74,-3 -0.41,-6 1.97,-8.11q14.58,-12.98 31.84,-2.34c2.98,1.85 4.24,5.52 1.81,8.26c-2.67,3.02 -7.36,1.04 -10.43,-0.52z" fill="#fcfdf8" id="svg_28"/>
  <path d="m35.42,145.22q-10.65,-3.6 -13.91,-13.66c-0.56,-9.75 5.16,-16.41 13.19,-21.09q0.46,-0.27 0.47,0.27l0.25,34.48z" fill="#fcfdf8" id="svg_29"/>
  <path d="m253.19,134.02q-4.32,7.79 -13.58,11.31l0.03,-34.64a0.36,0.36 0 0 1 0.54,-0.31q4.97,2.89 8.74,7.47q5.33,6.45 4.27,16.17z" fill="#fcfdf8" id="svg_30"/>
  <circle cx="100.03" cy="124.64" fill="#fcfdf8" id="svg_31" r="8.83"/>
  <ellipse cx="175.64" cy="124.62" fill="#fcfdf8" id="svg_32" rx="8.89" ry="8.77" transform="rotate(48.9 175.64 124.62)"/>
  <path d="m21.51,131.56q3.26,10.06 13.91,13.66q0.23,7.01 1.87,13.68q0.3,1.22 -0.83,0.66q-5.95,-2.94 -10.44,-7.84c-4.52,-4.93 -5.28,-13.6 -4.51,-20.16z" fill="#abb4b6" id="svg_33"/>
  <path d="m253.19,134.02q0.58,4.63 -0.19,9.55q-0.68,4.26 -2.71,6.86q-5.01,6.39 -12.15,9.21a0.27,0.27 0 0 1 -0.37,-0.29l1.84,-14.02q9.26,-3.52 13.58,-11.31z" fill="#abb4b6" id="svg_34"/>
  <path d="m132.69,154.59c4.23,1.69 8.55,0.87 12.53,-1.14c2.84,-1.44 6.09,-0.95 7.43,2.13q2.08,4.77 -2.92,8q-6.75,4.38 -16.21,2.93c-4.26,-0.65 -13.12,-4.6 -10.9,-10.48c0.95,-2.5 3.73,-4.36 6.36,-3.07q1.78,0.86 3.71,1.63z" fill="#fcfdf8" id="svg_35"/>
  <path d="m85.61,190.14l12.16,3.7a0.55,0.55 0 0 0 0.63,-0.81l-0.81,-1.42q3.55,0.38 9.78,1.99q8.81,2.28 24.7,2.46l-46.43,23.25l-0.03,-29.17z" fill="#506262" id="svg_36"/>
 </g>
</svg>